<?xml version="1.0" standalone="no"?>
<!DOCTYPE svg PUBLIC "-//W3C//DTD SVG 20010904//EN"
 "http://www.w3.org/TR/2001/REC-SVG-20010904/DTD/svg10.dtd">
<svg version="1.0" xmlns="http://www.w3.org/2000/svg"
 width="1536.000000pt" height="1024.000000pt" viewBox="0 0 1536.000000 1024.000000"
 preserveAspectRatio="xMidYMid meet">

<g transform="translate(0.000000,1024.000000) scale(0.100000,-0.100000)"
fill="#000000" stroke="none">
<path d="M7563 8445 c-113 -31 -194 -88 -256 -182 -105 -159 -106 -353 -2
-510 93 -140 284 -223 445 -195 238 42 390 236 378 482 -3 73 -9 98 -40 161
-94 199 -314 300 -525 244z m155 -107 c7 -7 12 -24 12 -39 0 -22 6 -30 35 -39
45 -15 87 -65 83 -99 -3 -22 -8 -26 -40 -29 -22 -2 -38 1 -38 7 0 25 -41 51
-79 51 -47 0 -71 -20 -71 -59 0 -37 22 -54 105 -81 76 -25 129 -68 141 -113
16 -68 -23 -139 -95 -172 -30 -13 -41 -24 -41 -40 0 -61 -59 -73 -74 -15 -7
29 -17 40 -60 60 -61 30 -99 87 -77 114 23 27 62 19 97 -19 26 -29 39 -35 73
-35 45 0 91 33 91 65 0 28 -45 62 -114 85 -38 12 -82 34 -98 49 -72 65 -43
192 53 231 16 7 29 18 29 26 0 50 39 81 68 52z"/>
<path d="M8946 7601 c-38 -42 -106 -243 -106 -315 0 -47 23 -59 119 -59 132 0
175 22 131 68 -43 46 -18 95 49 95 20 0 31 5 31 14 0 27 -62 132 -103 174 -47
48 -91 56 -121 23z"/>
<path d="M5922 7564 c-12 -8 -22 -21 -22 -29 0 -8 41 -93 90 -189 50 -96 90
-179 90 -184 0 -4 -44 -53 -98 -108 -104 -106 -155 -188 -203 -328 -42 -121
-116 -174 -269 -192 -124 -14 -131 -39 -91 -316 17 -115 38 -224 47 -244 21
-45 59 -73 159 -118 74 -34 88 -45 172 -141 106 -119 184 -187 282 -244 87
-51 108 -90 127 -234 29 -212 33 -232 51 -245 14 -11 49 -13 153 -9 74 2 143
8 153 12 28 12 36 43 43 185 4 72 12 133 17 137 24 14 95 1 169 -33 103 -46
139 -46 247 1 47 21 102 40 123 43 64 8 68 -1 68 -164 0 -111 3 -146 14 -157
16 -16 286 -35 325 -22 30 9 52 46 105 170 25 61 68 141 95 178 115 157 214
405 253 631 26 155 21 420 -11 557 -52 225 -147 422 -280 578 -143 168 -363
280 -628 320 -130 20 -353 11 -500 -19 l-52 -11 40 -61 c40 -62 49 -104 27
-126 -24 -24 -48 -11 -90 46 -127 172 -293 283 -475 318 -94 18 -103 18 -131
-2z m1171 -235 c93 -14 223 -46 258 -65 35 -17 50 -44 42 -72 -9 -37 -48 -38
-183 -4 -138 35 -247 51 -360 53 -45 1 -84 7 -97 15 -25 16 -30 53 -11 72 15
15 251 16 351 1z m-792 -738 c37 -37 39 -88 7 -126 -67 -76 -189 -5 -157 92
21 65 101 83 150 34z"/>
<path d="M9342 7538 c-22 -13 -55 -36 -72 -51 -28 -24 -31 -32 -26 -59 8 -41
23 -58 52 -58 13 0 46 -9 74 -19 58 -22 57 -23 84 68 21 73 20 88 -9 116 -30
31 -51 31 -103 3z"/>
<path d="M8178 7391 c-154 -30 -259 -69 -362 -135 l-57 -36 59 -73 c99 -121
183 -268 238 -413 98 -260 112 -652 33 -944 -45 -169 -140 -374 -235 -506 -38
-53 -65 -106 -89 -175 l-35 -100 26 -9 c28 -11 225 -12 264 -1 18 5 34 24 55
66 38 77 80 100 197 109 46 4 141 14 212 22 107 13 131 13 142 2 7 -7 18 -47
24 -88 6 -41 17 -82 26 -90 12 -12 53 -16 214 -18 238 -4 220 -16 245 162 16
114 41 202 68 237 6 9 44 36 82 61 106 67 181 134 280 248 84 95 96 106 175
142 131 61 160 95 179 213 41 263 51 365 38 398 -20 48 -36 56 -127 68 -152
19 -220 78 -265 231 -15 52 -21 60 -58 77 -50 23 -81 50 -131 112 -35 45 -37
46 -84 42 -71 -6 -130 27 -161 92 l-25 51 -120 0 c-101 -1 -128 3 -160 19 -71
36 -92 89 -73 187 l8 36 -48 12 c-26 6 -136 13 -243 15 -161 4 -212 1 -292
-14z m433 -71 c22 -12 26 -62 7 -77 -7 -6 -66 -13 -130 -17 -135 -8 -240 -25
-374 -60 -116 -31 -144 -26 -144 29 0 33 4 38 44 55 58 26 199 59 294 69 114
12 281 12 303 1z m553 -711 c23 -11 56 -62 56 -89 0 -44 -54 -90 -106 -90 -39
0 -84 51 -84 95 0 27 8 44 29 66 31 31 64 36 105 18z"/>
<path d="M9202 7313 c-19 -7 -42 -58 -42 -91 0 -44 41 -114 76 -128 64 -25
136 31 150 118 7 43 -12 65 -64 73 -20 4 -49 13 -64 21 -27 15 -35 16 -56 7z"/>
<path d="M9513 7271 c-24 -4 -45 -10 -49 -13 -3 -4 -1 -23 6 -42 15 -46 6 -72
-30 -85 -62 -21 -45 -87 45 -170 48 -45 82 -52 108 -23 24 27 117 226 123 264
9 54 -11 70 -92 74 -38 1 -88 -1 -111 -5z"/>
<path d="M9223 4380 c-111 -23 -172 -101 -160 -206 12 -111 93 -175 221 -175
128 0 206 63 214 172 5 73 -1 99 -35 140 -48 57 -152 87 -240 69z"/>
<path d="M5290 4371 c-20 -4 -41 -11 -48 -15 -9 -5 -12 -129 -12 -522 0 -531
-6 -627 -40 -694 -55 -107 -185 -153 -330 -116 -70 18 -117 43 -200 105 -30
23 -58 41 -63 41 -19 0 -65 -62 -111 -151 -37 -71 -48 -101 -43 -120 14 -54
193 -153 352 -195 108 -28 316 -26 415 5 164 50 271 137 335 273 61 129 65
180 65 809 l0 558 -22 15 c-18 13 -49 16 -143 15 -66 -1 -136 -4 -155 -8z"/>
<path d="M8455 4193 c-161 -21 -154 -12 -157 -201 l-3 -157 -90 -8 c-49 -4
-95 -13 -102 -19 -9 -7 -13 -40 -13 -104 0 -121 3 -124 121 -124 l89 0 0 -257
c0 -142 5 -287 11 -323 30 -184 134 -284 325 -312 66 -9 95 -8 178 5 54 10
119 26 144 37 l45 20 -6 95 c-4 53 -12 105 -18 116 -10 19 -16 20 -57 13 -79
-15 -166 -10 -196 10 -54 35 -60 67 -64 344 l-4 252 131 0 c167 0 171 3 171
119 0 44 -4 91 -10 105 -9 25 -10 25 -147 28 l-138 3 -5 175 c-5 174 -5 174
-30 187 -30 15 -34 15 -175 -4z"/>
<path d="M7540 3835 c-67 -22 -151 -85 -190 -143 -19 -28 -37 -51 -40 -52 -3
0 -11 37 -17 82 -15 116 -23 121 -175 116 -74 -2 -121 -7 -129 -15 -9 -9 -12
-140 -10 -550 2 -459 4 -540 17 -553 21 -21 266 -21 309 0 l30 15 5 330 c5
344 7 361 52 416 50 61 154 78 206 34 45 -38 52 -90 52 -388 0 -159 4 -277 11
-302 26 -94 128 -142 279 -132 108 8 186 31 201 59 12 21 7 147 -6 168 -3 6
-28 10 -55 10 -39 0 -52 4 -60 19 -6 12 -10 118 -10 273 0 332 -12 414 -73
504 -25 38 -48 57 -100 83 -61 31 -78 35 -160 38 -62 2 -107 -2 -137 -12z"/>
<path d="M10253 3836 c-83 -27 -174 -98 -224 -176 l-16 -25 -7 43 c-3 23 -9
60 -12 81 -10 73 -16 76 -164 76 -105 0 -133 -3 -140 -15 -6 -9 -10 -229 -10
-547 0 -461 2 -534 15 -547 22 -21 95 -30 199 -22 116 8 135 13 147 43 5 13 9
161 9 327 0 200 4 315 11 337 16 47 54 96 89 114 35 18 129 19 150 2 45 -36
45 -37 51 -351 4 -198 10 -315 19 -341 16 -53 76 -108 134 -125 84 -23 298 -3
344 33 15 11 16 124 2 161 -8 23 -15 26 -55 26 -73 0 -73 -1 -78 345 -4 331
-9 361 -70 452 -24 35 -49 57 -97 83 -59 31 -74 34 -160 37 -61 2 -110 -2
-137 -11z"/>
<path d="M5855 3829 c-38 -6 -65 -15 -73 -26 -10 -14 -12 -108 -10 -453 3
-434 3 -435 27 -488 62 -137 217 -201 386 -157 87 23 168 70 230 136 31 33 58
59 59 59 2 0 6 -29 9 -63 8 -84 23 -114 63 -127 35 -12 210 -15 238 -4 32 12
36 38 26 191 -5 81 -10 317 -10 523 0 331 -2 378 -16 399 -16 23 -19 23 -164
20 -102 -3 -152 -8 -163 -17 -13 -12 -16 -58 -19 -350 l-3 -337 -29 -53 c-46
-82 -134 -122 -206 -92 -63 26 -64 36 -70 450 l-5 374 -25 13 c-28 14 -153 15
-245 2z"/>
<path d="M9184 3833 c-68 -9 -65 16 -62 -566 3 -490 4 -528 21 -544 15 -15 39
-19 155 -21 122 -3 140 -2 159 15 l22 18 3 538 c3 523 2 539 -16 553 -15 10
-49 14 -135 12 -64 0 -130 -3 -147 -5z"/>
</g>
</svg>
